STARTFONT 2.1
FONT -DEC-Terminal-Medium-R-Double Wide--14-140-75-75-C-160-ISO8859-1
SIZE 14 75 75
FONTBOUNDINGBOX 16 15 0 -3

STARTPROPERTIES 24
FOUNDRY "DEC"
FAMILY_NAME "Terminal"
WEIGHT_NAME "Medium"
SLANT "R"
SETWIDTH_NAME "Double Wide"
ADD_STYLE_NAME ""
PIXEL_SIZE 14
POINT_SIZE 140
RESOLUTION_X 75
RESOLUTION_Y 75
SPACING "C"
AVERAGE_WIDTH 160
CHARSET_REGISTRY "ISO8859"
CHARSET_ENCODING "1"
CAP_HEIGHT 10
X_HEIGHT 8
COPYRIGHT "Copyright (c) 1991 Digital Equipment Corporation. All Rights Reserved."
_DEC_PRODUCTINFO "DECterm Fonts V2.2, 11-Nov-1991"
FULL_NAME "Terminal Double Wide"
WEIGHT 10
QUAD_WIDTH 16
DEFAULT_CHAR 159
FONT_DESCENT 3
FONT_ASCENT 12
ENDPROPERTIES

CHARS 195

STARTCHAR space
ENCODING 32
SWIDTH 1140 0
DWIDTH 16 0
BBX 16 15 0 -3
BITMAP
0000
0000
0000
0000
0000
0000
0000
0000
0000
0000
0000
0000
0000
0000
0000
ENDCHAR

STARTCHAR exclam
ENCODING 33
SWIDTH 1140 0
DWIDTH 16 0
BBX 16 15 0 -3
BITMAP
0000
0000
0180
0180
0180
0180
0180
0180
0180
0000
0180
0180
0000
0000
0000
ENDCHAR

STARTCHAR quotedbl
ENCODING 34
SWIDTH 1140 0
DWIDTH 16 0
BBX 16 15 0 -3
BITMAP
0000
0660
0660
0660
0660
0000
0000
0000
0000
0000
0000
0000
0000
0000
0000
ENDCHAR

STARTCHAR numbersign
ENCODING 35
SWIDTH 1140 0
DWIDTH 16 0
BBX 16 15 0 -3
BITMAP
0000
0000
0000
0C30
0C30
3FFC
0C30
0C30
3FFC
0C30
0C30
0000
0000
0000
0000
ENDCHAR

STARTCHAR dollar
ENCODING 36
SWIDTH 1140 0
DWIDTH 16 0
BBX 16 15 0 -3
BITMAP
0000
00C0
00C0
07F8
0E1C
0E00
07F8
01FC
001C
0E1C
07F8
00C0
00C0
0000
0000
ENDCHAR

STARTCHAR percent
ENCODING 37
SWIDTH 1140 0
DWIDTH 16 0
BBX 16 15 0 -3
BITMAP
0000
0000
1E0C
3318
3330
1E60
00C0
0180
033C
0666
0C66
183C
0000
0000
0000
ENDCHAR

STARTCHAR ampersand
ENCODING 38
SWIDTH 1140 0
DWIDTH 16 0
BBX 16 15 0 -3
BITMAP
0000
0000
07C0
0E60
0C60
0CE0
07C0
0F8C
1CF8
3870
3CFC
1FCF
0000
0000
0000
ENDCHAR

STARTCHAR quoteright
ENCODING 39
SWIDTH 1140 0
DWIDTH 16 0
BBX 16 15 0 -3
BITMAP
0000
03C0
0300
0600
0000
0000
0000
0000
0000
0000
0000
0000
0000
0000
0000
ENDCHAR

STARTCHAR parenleft
ENCODING 40
SWIDTH 1140 0
DWIDTH 16 0
BBX 16 15 0 -3
BITMAP
0000
0030
0060
00E0
00C0
01C0
01C0
01C0
01C0
00C0
00E0
0060
0030
0000
0000
ENDCHAR

STARTCHAR parenright
ENCODING 41
SWIDTH 1140 0
DWIDTH 16 0
BBX 16 15 0 -3
BITMAP
0000
0C00
0600
0700
0300
0380
0380
0380
0380
0300
0700
0600
0C00
0000
0000
ENDCHAR

STARTCHAR asterisk
ENCODING 42
SWIDTH 1140 0
DWIDTH 16 0
BBX 16 15 0 -3
BITMAP
0000
0000
0C30
03C0
1FF8
03C0
0C30
0000
0000
0000
0000
0000
0000
0000
0000
ENDCHAR

STARTCHAR plus
ENCODING 43
SWIDTH 1140 0
DWIDTH 16 0
BBX 16 15 0 -3
BITMAP
0000
0000
0000
0000
0180
0180
0180
1FF8
0180
0180
0180
0000
0000
0000
0000
ENDCHAR

STARTCHAR comma
ENCODING 44
SWIDTH 1140 0
DWIDTH 16 0
BBX 16 15 0 -3
BITMAP
0000
0000
0000
0000
0000
0000
0000
0000
0000
0000
01C0
0180
0300
0600
0000
ENDCHAR

STARTCHAR minus
ENCODING 45
SWIDTH 1140 0
DWIDTH 16 0
BBX 16 15 0 -3
BITMAP
0000
0000
0000
0000
0000
0000
0000
1FF8
0000
0000
0000
0000
0000
0000
0000
ENDCHAR

STARTCHAR period
ENCODING 46
SWIDTH 1140 0
DWIDTH 16 0
BBX 16 15 0 -3
BITMAP
0000
0000
0000
0000
0000
0000
0000
0000
0000
0000
0380
0380
0000
0000
0000
ENDCHAR

STARTCHAR slash
ENCODING 47
SWIDTH 1140 0
DWIDTH 16 0
BBX 16 15 0 -3
BITMAP
0000
0038
0038
0070
0060
00E0
01C0
0380
0700
0600
0E00
1C00
1C00
0000
0000
ENDCHAR

STARTCHAR zero
ENCODING 48
SWIDTH 1140 0
DWIDTH 16 0
BBX 16 15 0 -3
BITMAP
0000
0000
03C0
0E70
1C38
1C38
1C38
1C38
1C38
1C38
0E70
03C0
0000
0000
0000
ENDCHAR

STARTCHAR one
ENCODING 49
SWIDTH 1140 0
DWIDTH 16 0
BBX 16 15 0 -3
BITMAP
0000
0000
01C0
03C0
07C0
0DC0
01C0
01C0
01C0
01C0
01C0
0FF8
0000
0000
0000
ENDCHAR

STARTCHAR two
ENCODING 50
SWIDTH 1140 0
DWIDTH 16 0
BBX 16 15 0 -3
BITMAP
0000
0000
0FF0
1C38
0038
0078
00F0
03C0
0700
0E18
1C18
1FF8
0000
0000
0000
ENDCHAR

STARTCHAR three
ENCODING 51
SWIDTH 1140 0
DWIDTH 16 0
BBX 16 15 0 -3
BITMAP
0000
0000
0FF0
1C78
0038
0070
03C0
0070
0038
1838
1C78
0FF0
0000
0000
0000
ENDCHAR

STARTCHAR four
ENCODING 52
SWIDTH 1140 0
DWIDTH 16 0
BBX 16 15 0 -3
BITMAP
0000
0000
0070
00F0
01F0
0370
0670
0C70
1870
1FFC
0070
0070
0000
0000
0000
ENDCHAR

STARTCHAR five
ENCODING 53
SWIDTH 1140 0
DWIDTH 16 0
BBX 16 15 0 -3
BITMAP
0000
0000
0FF8
0E18
0E00
0E00
0FF0
0E78
0038
0038
0E78
07F0
0000
0000
0000
ENDCHAR

STARTCHAR six
ENCODING 54
SWIDTH 1140 0
DWIDTH 16 0
BBX 16 15 0 -3
BITMAP
0000
0000
01F0
0738
0E00
1C00
1DF8
1E3C
1C1C
1C1C
0E38
07F0
0000
0000
0000
ENDCHAR

STARTCHAR seven
ENCODING 55
SWIDTH 1140 0
DWIDTH 16 0
BBX 16 15 0 -3
BITMAP
0000
0000
1FF8
1838
1870
00E0
00E0
01C0
0380
0380
0700
0700
0000
0000
0000
ENDCHAR

STARTCHAR eight
ENCODING 56
SWIDTH 1140 0
DWIDTH 16 0
BBX 16 15 0 -3
BITMAP
0000
0000
0FF0
1E78
1C38
0E70
07E0
0E70
1C38
1C38
1E78
0FF0
0000
0000
0000
ENDCHAR

STARTCHAR nine
ENCODING 57
SWIDTH 1140 0
DWIDTH 16 0
BBX 16 15 0 -3
BITMAP
0000
0000
0FE0
1C70
3838
3838
1C78
0FB8
0038
0070
1CE0
0F80
0000
0000
0000
ENDCHAR

STARTCHAR colon
ENCODING 58
SWIDTH 1140 0
DWIDTH 16 0
BBX 16 15 0 -3
BITMAP
0000
0000
0000
0000
0000
0380
0380
0000
0000
0000
0380
0380
0000
0000
0000
ENDCHAR

STARTCHAR semicolon
ENCODING 59
SWIDTH 1140 0
DWIDTH 16 0
BBX 16 15 0 -3
BITMAP
0000
0000
0000
0000
0000
0380
0380
0000
0000
0000
0380
0300
0600
0C00
0000
ENDCHAR

STARTCHAR less
ENCODING 60
SWIDTH 1140 0
DWIDTH 16 0
BBX 16 15 0 -3
BITMAP
0000
0000
0070
00E0
01C0
0380
0700
0700
0380
01C0
00E0
0070
0000
0000
0000
ENDCHAR

STARTCHAR equal
ENCODING 61
SWIDTH 1140 0
DWIDTH 16 0
BBX 16 15 0 -3
BITMAP
0000
0000
0000
0000
0000
0000
1FF8
0000
0000
1FF8
0000
0000
0000
0000
0000
ENDCHAR

STARTCHAR greater
ENCODING 62
SWIDTH 1140 0
DWIDTH 16 0
BBX 16 15 0 -3
BITMAP
0000
0000
0700
0380
01C0
00E0
0070
0070
00E0
01C0
0380
0700
0000
0000
0000
ENDCHAR

STARTCHAR question
ENCODING 63
SWIDTH 1140 0
DWIDTH 16 0
BBX 16 15 0 -3
BITMAP
0000
0000
0FF0
1C38
1838
0070
00E0
01C0
0180
0000
0180
0180
0000
0000
0000
ENDCHAR

STARTCHAR at
ENCODING 64
SWIDTH 1140 0
DWIDTH 16 0
BBX 16 15 0 -3
BITMAP
0000
0000
03FC
0E0E
1C07
38FF
3987
39CF
38F7
3800
1C00
07F8
0000
0000
0000
ENDCHAR

STARTCHAR A
ENCODING 65
SWIDTH 1140 0
DWIDTH 16 0
BBX 16 15 0 -3
BITMAP
0000
0000
00C0
01E0
03F0
0330
0738
0E1C
0FFC
1C0E
1C0E
3E1F
0000
0000
0000
ENDCHAR

STARTCHAR B
ENCODING 66
SWIDTH 1140 0
DWIDTH 16 0
BBX 16 15 0 -3
BITMAP
0000
0000
3FFC
1C1E
1C0E
1C1C
1FF8
1C1C
1C0E
1C0E
1C1E
3FFC
0000
0000
0000
ENDCHAR

STARTCHAR C
ENCODING 67
SWIDTH 1140 0
DWIDTH 16 0
BBX 16 15 0 -3
BITMAP
0000
0000
07FC
1E0E
1C06
3800
3800
3800
3802
1C06
1F0E
07FC
0000
0000
0000
ENDCHAR

STARTCHAR D
ENCODING 68
SWIDTH 1140 0
DWIDTH 16 0
BBX 16 15 0 -3
BITMAP
0000
0000
7FF0
1C3C
1C1C
1C0E
1C0E
1C0E
1C0E
1C1C
1C3C
7FF0
0000
0000
0000
ENDCHAR

STARTCHAR E
ENCODING 69
SWIDTH 1140 0
DWIDTH 16 0
BBX 16 15 0 -3
BITMAP
0000
0000
3FFC
0E0C
0E04
0E00
0FF0
0E00
0E00
0E04
0E0C
3FFC
0000
0000
0000
ENDCHAR

STARTCHAR F
ENCODING 70
SWIDTH 1140 0
DWIDTH 16 0
BBX 16 15 0 -3
BITMAP
0000
0000
1FFE
0706
0702
0700
0700
07F8
0700
0700
0700
1FC0
0000
0000
0000
ENDCHAR

STARTCHAR G
ENCODING 71
SWIDTH 1140 0
DWIDTH 16 0
BBX 16 15 0 -3
BITMAP
0000
0000
03FC
0E0C
1C04
3800
3800
383E
3806
1C06
1E0E
07FC
0000
0000
0000
ENDCHAR

STARTCHAR H
ENCODING 72
SWIDTH 1140 0
DWIDTH 16 0
BBX 16 15 0 -3
BITMAP
0000
0000
3E3E
1C1C
1C1C
1C1C
1FFC
1C1C
1C1C
1C1C
1C1C
3E3E
0000
0000
0000
ENDCHAR

STARTCHAR I
ENCODING 73
SWIDTH 1140 0
DWIDTH 16 0
BBX 16 15 0 -3
BITMAP
0000
0000
0FF8
01C0
01C0
01C0
01C0
01C0
01C0
01C0
01C0
0FF8
0000
0000
0000
ENDCHAR

STARTCHAR J
ENCODING 74
SWIDTH 1140 0
DWIDTH 16 0
BBX 16 15 0 -3
BITMAP
0000
0000
07F8
0038
0038
0038
0038
0038
0038
1838
1C78
0FF0
0000
0000
0000
ENDCHAR

STARTCHAR K
ENCODING 75
SWIDTH 1140 0
DWIDTH 16 0
BBX 16 15 0 -3
BITMAP
0000
0000
3F0E
0E1C
0E38
0E70
0EE0
0FF0
0E78
0E3C
0E1E
3F0F
0000
0000
0000
ENDCHAR

STARTCHAR L
ENCODING 76
SWIDTH 1140 0
DWIDTH 16 0
BBX 16 15 0 -3
BITMAP
0000
0000
1FC0
0700
0700
0700
0700
0700
0702
0706
070E
1FFE
0000
0000
0000
ENDCHAR

STARTCHAR M
ENCODING 77
SWIDTH 1140 0
DWIDTH 16 0
BBX 16 15 0 -3
BITMAP
0000
0000
3C0F
1E1E
1F3E
1D2E
1DEE
1CCE
1CCE
1CCE
1C0E
3C0F
0000
0000
0000
ENDCHAR

STARTCHAR N
ENCODING 78
SWIDTH 1140 0
DWIDTH 16 0
BBX 16 15 0 -3
BITMAP
0000
0000
3C0F
1E0E
1F0E
1D8E
1DCE
1CEE
1C6E
1C3E
1C1E
3C0E
0000
0000
0000
ENDCHAR

STARTCHAR O
ENCODING 79
SWIDTH 1140 0
DWIDTH 16 0
BBX 16 15 0 -3
BITMAP
0000
0000
07F0
1E3C
1C1C
380E
380E
380E
380E
1C1C
1E3C
07F0
0000
0000
0000
ENDCHAR

STARTCHAR P
ENCODING 80
SWIDTH 1140 0
DWIDTH 16 0
BBX 16 15 0 -3
BITMAP
0000
0000
3FFC
0E0E
0E07
0E07
0E07
0E0E
0FFC
0E00
0E00
3F80
0000
0000
0000
ENDCHAR

STARTCHAR Q
ENCODING 81
SWIDTH 1140 0
DWIDTH 16 0
BBX 16 15 0 -3
BITMAP
0000
0000
07F0
1C3C
181C
380E
380E
380E
380E
1C6C
1E3C
07F8
000E
0000
0000
ENDCHAR

STARTCHAR R
ENCODING 82
SWIDTH 1140 0
DWIDTH 16 0
BBX 16 15 0 -3
BITMAP
0000
0000
3FFC
0E1E
0E0E
0E0E
0E1C
0FF0
0E78
0E3C
0E1E
3F8F
0000
0000
0000
ENDCHAR

STARTCHAR S
ENCODING 83
SWIDTH 1140 0
DWIDTH 16 0
BBX 16 15 0 -3
BITMAP
0000
0000
03F8
0E0C
1C0C
1E00
0FF8
07FC
001E
180E
1C1C
0FF0
0000
0000
0000
ENDCHAR

STARTCHAR T
ENCODING 84
SWIDTH 1140 0
DWIDTH 16 0
BBX 16 15 0 -3
BITMAP
0000
0000
3FFE
31C6
21C2
01C0
01C0
01C0
01C0
01C0
01C0
07F0
0000
0000
0000
ENDCHAR

STARTCHAR U
ENCODING 85
SWIDTH 1140 0
DWIDTH 16 0
BBX 16 15 0 -3
BITMAP
0000
0000
3E3E
1C1C
1C1C
1C1C
1C1C
1C1C
1C1C
1C1C
0E38
07F0
0000
0000
0000
ENDCHAR

STARTCHAR V
ENCODING 86
SWIDTH 1140 0
DWIDTH 16 0
BBX 16 15 0 -3
BITMAP
0000
0000
780F
380E
1C1C
1C1C
0E38
0E38
0770
03E0
01C0
0080
0000
0000
0000
ENDCHAR

STARTCHAR W
ENCODING 87
SWIDTH 1140 0
DWIDTH 16 0
BBX 16 15 0 -3
BITMAP
0000
0000
700E
700E
318C
318C
3BDC
1BD8
1E78
0E70
0C30
0C30
0000
0000
0000
ENDCHAR

STARTCHAR X
ENCODING 88
SWIDTH 1140 0
DWIDTH 16 0
BBX 16 15 0 -3
BITMAP
0000
0000
781E
1C38
0E70
07E0
03C0
03C0
07E0
0E70
1C38
781E
0000
0000
0000
ENDCHAR

STARTCHAR Y
ENCODING 89
SWIDTH 1140 0
DWIDTH 16 0
BBX 16 15 0 -3
BITMAP
0000
0000
780F
1C1C
0E38
0770
0360
01C0
01C0
01C0
01C0
03E0
0000
0000
0000
ENDCHAR

STARTCHAR Z
ENCODING 90
SWIDTH 1140 0
DWIDTH 16 0
BBX 16 15 0 -3
BITMAP
0000
0000
1FFC
183C
1078
00F0
01E0
03C0
0780
0F04
1E0C
1FFC
0000
0000
0000
ENDCHAR

STARTCHAR bracketleft
ENCODING 91
SWIDTH 1140 0
DWIDTH 16 0
BBX 16 15 0 -3
BITMAP
0000
00F8
00E0
00E0
00E0
00E0
00E0
00E0
00E0
00E0
00E0
00E0
00F8
0000
0000
ENDCHAR

STARTCHAR backslash
ENCODING 92
SWIDTH 1140 0
DWIDTH 16 0
BBX 16 15 0 -3
BITMAP
0000
1C00
1C00
0E00
0600
0700
0380
01C0
00E0
0060
0070
0038
0038
0000
0000
ENDCHAR

STARTCHAR bracketright
ENCODING 93
SWIDTH 1140 0
DWIDTH 16 0
BBX 16 15 0 -3
BITMAP
0000
1F80
0380
0380
0380
0380
0380
0380
0380
0380
0380
0380
1F80
0000
0000
ENDCHAR

STARTCHAR asciicircum
ENCODING 94
SWIDTH 1140 0
DWIDTH 16 0
BBX 16 15 0 -3
BITMAP
0000
0000
0000
0000
01C0
03E0
0770
0E38
0000
0000
0000
0000
0000
0000
0000
ENDCHAR

STARTCHAR underscore
ENCODING 95
SWIDTH 1140 0
DWIDTH 16 0
BBX 16 15 0 -3
BITMAP
0000
0000
0000
0000
0000
0000
0000
0000
0000
0000
0000
3FFC
0000
0000
0000
ENDCHAR

STARTCHAR quoteleft
ENCODING 96
SWIDTH 1140 0
DWIDTH 16 0
BBX 16 15 0 -3
BITMAP
0000
03C0
00C0
0060
0000
0000
0000
0000
0000
0000
0000
0000
0000
0000
0000
ENDCHAR

STARTCHAR a
ENCODING 97
SWIDTH 1140 0
DWIDTH 16 0
BBX 16 15 0 -3
BITMAP
0000
0000
0000
0000
0FFC
1E1E
000E
000E
1FFE
3C0E
3C1E
1FE7
0000
0000
0000
ENDCHAR

STARTCHAR b
ENCODING 98
SWIDTH 1140 0
DWIDTH 16 0
BBX 16 15 0 -3
BITMAP
0000
7C00
1C00
1C00
1DF8
1E1C
1C0E
1C0E
1C0E
1C0E
1E1C
1DF8
0000
0000
0000
ENDCHAR

STARTCHAR c
ENCODING 99
SWIDTH 1140 0
DWIDTH 16 0
BBX 16 15 0 -3
BITMAP
0000
0000
0000
0000
07FC
1C0E
3806
3800
3800
3C06
1E0E
07FC
0000
0000
0000
ENDCHAR

STARTCHAR d
ENCODING 100
SWIDTH 1140 0
DWIDTH 16 0
BBX 16 15 0 -3
BITMAP
0000
007C
001C
001C
07DC
1C3C
381C
381C
381C
381C
1C3C
07CE
0000
0000
0000
ENDCHAR

STARTCHAR e
ENCODING 101
SWIDTH 1140 0
DWIDTH 16 0
BBX 16 15 0 -3
BITMAP
0000
0000
0000
0000
07FC
1C0E
380E
3FFC
3800
3806
1C0E
0FFC
0000
0000
0000
ENDCHAR

STARTCHAR f
ENCODING 102
SWIDTH 1140 0
DWIDTH 16 0
BBX 16 15 0 -3
BITMAP
0000
01FE
0380
0380
1FFC
0380
0380
0380
0380
0380
0380
1FF8
0000
0000
0000
ENDCHAR

STARTCHAR g
ENCODING 103
SWIDTH 1140 0
DWIDTH 16 0
BBX 16 15 0 -3
BITMAP
0000
0000
0000
0000
07EF
1C1E
380E
380E
380E
1C1E
0FEE
000E
001C
1FF8
0000
ENDCHAR

STARTCHAR h
ENCODING 104
SWIDTH 1140 0
DWIDTH 16 0
BBX 16 15 0 -3
BITMAP
0000
7C00
1C00
1C00
1DF8
1E3C
1C1C
1C1C
1C1C
1C1C
1C1C
7C1F
0000
0000
0000
ENDCHAR

STARTCHAR i
ENCODING 105
SWIDTH 1140 0
DWIDTH 16 0
BBX 16 15 0 -3
BITMAP
0000
01C0
01C0
0000
1FC0
01C0
01C0
01C0
01C0
01C0
01C0
3FFE
0000
0000
0000
ENDCHAR

STARTCHAR j
ENCODING 106
SWIDTH 1140 0
DWIDTH 16 0
BBX 16 15 0 -3
BITMAP
0000
0038
0038
0000
0FF8
0038
0038
0038
0038
0038
0038
0038
0070
1FE0
0000
ENDCHAR

STARTCHAR k
ENCODING 107
SWIDTH 1140 0
DWIDTH 16 0
BBX 16 15 0 -3
BITMAP
0000
7C00
1C00
1C00
1C1E
1C38
1CF0
1FC0
1FC0
1CF0
1C3C
7E1F
0000
0000
0000
ENDCHAR

STARTCHAR l
ENCODING 108
SWIDTH 1140 0
DWIDTH 16 0
BBX 16 15 0 -3
BITMAP
0000
0FC0
01C0
01C0
01C0
01C0
01C0
01C0
01C0
01C0
01C0
3FFE
0000
0000
0000
ENDCHAR

STARTCHAR m
ENCODING 109
SWIDTH 1140 0
DWIDTH 16 0
BBX 16 15 0 -3
BITMAP
0000
0000
0000
0000
F73C
79CE
718E
718E
718E
718E
718E
F18F
0000
0000
0000
ENDCHAR

STARTCHAR n
ENCODING 110
SWIDTH 1140 0
DWIDTH 16 0
BBX 16 15 0 -3
BITMAP
0000
0000
0000
0000
7DF8
1E3C
1C1C
1C1C
1C1C
1C1C
1C1C
7C1F
0000
0000
0000
ENDCHAR

STARTCHAR o
ENCODING 111
SWIDTH 1140 0
DWIDTH 16 0
BBX 16 15 0 -3
BITMAP
0000
0000
0000
0000
07F0
1C1C
380E
380E
380E
380E
1C1C
07F0
0000
0000
0000
ENDCHAR

STARTCHAR p
ENCODING 112
SWIDTH 1140 0
DWIDTH 16 0
BBX 16 15 0 -3
BITMAP
0000
0000
0000
0000
7DF8
1E1C
1C0E
1C0E
1C0E
1C0E
1E1C
1DF8
1C00
7F00
0000
ENDCHAR

STARTCHAR q
ENCODING 113
SWIDTH 1140 0
DWIDTH 16 0
BBX 16 15 0 -3
BITMAP
0000
0000
0000
0000
07DE
1C3C
381C
381C
381C
381C
1C3C
07DC
001C
007F
0000
ENDCHAR

STARTCHAR r
ENCODING 114
SWIDTH 1140 0
DWIDTH 16 0
BBX 16 15 0 -3
BITMAP
0000
0000
0000
0000
3F7C
078E
070E
0700
0700
0700
0700
7FF0
0000
0000
0000
ENDCHAR

STARTCHAR s
ENCODING 115
SWIDTH 1140 0
DWIDTH 16 0
BBX 16 15 0 -3
BITMAP
0000
0000
0000
0000
1FFC
3C0E
3800
1FFC
0FFE
000E
381E
1FFC
0000
0000
0000
ENDCHAR

STARTCHAR t
ENCODING 116
SWIDTH 1140 0
DWIDTH 16 0
BBX 16 15 0 -3
BITMAP
0000
0000
0700
0700
7FFC
0700
0700
0700
0700
0700
0780
03FC
0000
0000
0000
ENDCHAR

STARTCHAR u
ENCODING 117
SWIDTH 1140 0
DWIDTH 16 0
BBX 16 15 0 -3
BITMAP
0000
0000
0000
0000
7C7C
1C1C
1C1C
1C1C
1C1C
1C1C
1E3C
0FDF
0000
0000
0000
ENDCHAR

STARTCHAR v
ENCODING 118
SWIDTH 1140 0
DWIDTH 16 0
BBX 16 15 0 -3
BITMAP
0000
0000
0000
0000
F80F
380E
1C1C
0E38
0770
0360
01C0
0080
0000
0000
0000
ENDCHAR

STARTCHAR w
ENCODING 119
SWIDTH 1140 0
DWIDTH 16 0
BBX 16 15 0 -3
BITMAP
0000
0000
0000
0000
F81F
718E
318C
399C
1BD8
1A58
0E70
0C30
0000
0000
0000
ENDCHAR

STARTCHAR x
ENCODING 120
SWIDTH 1140 0
DWIDTH 16 0
BBX 16 15 0 -3
BITMAP
0000
0000
0000
0000
781E
1C38
0E70
07E0
03C0
0E70
1C38
781E
0000
0000
0000
ENDCHAR

STARTCHAR y
ENCODING 121
SWIDTH 1140 0
DWIDTH 16 0
BBX 16 15 0 -3
BITMAP
0000
0000
0000
0000
F81F
380E
1C1C
0E38
0770
03E0
01C0
0380
0700
3C00
0000
ENDCHAR

STARTCHAR z
ENCODING 122
SWIDTH 1140 0
DWIDTH 16 0
BBX 16 15 0 -3
BITMAP
0000
0000
0000
0000
3FFC
30F0
21E0
03C0
0780
0F04
1E0C
3FFC
0000
0000
0000
ENDCHAR

STARTCHAR braceleft
ENCODING 123
SWIDTH 1140 0
DWIDTH 16 0
BBX 16 15 0 -3
BITMAP
0000
00FC
01C0
0380
0380
01C0
0F80
01C0
0380
0380
0380
01C0
00FC
0000
0000
ENDCHAR

STARTCHAR bar
ENCODING 124
SWIDTH 1140 0
DWIDTH 16 0
BBX 16 15 0 -3
BITMAP
0000
0180
0180
0180
0180
0180
0180
0180
0180
0180
0180
0180
0180
0000
0000
ENDCHAR

STARTCHAR braceright
ENCODING 125
SWIDTH 1140 0
DWIDTH 16 0
BBX 16 15 0 -3
BITMAP
0000
3F00
0380
01C0
01C0
0380
01F0
0380
01C0
01C0
01C0
0380
3F00
0000
0000
ENDCHAR

STARTCHAR asciitilde
ENCODING 126
SWIDTH 1140 0
DWIDTH 16 0
BBX 16 15 0 -3
BITMAP
0000
0000
0000
0000
0710
0FF0
08E0
0000
0000
0000
0000
0000
0000
0000
0000
ENDCHAR

STARTCHAR OE
ENCODING 128
SWIDTH 1140 0
DWIDTH 16 0
BBX 16 15 0 -3
BITMAP
0000
0000
1FFF
78E3
70E1
E0E0
E0FE
E0E0
E0E0
70E1
78E3
1FFF
0000
0000
0000
ENDCHAR

STARTCHAR oe
ENCODING 129
SWIDTH 1140 0
DWIDTH 16 0
BBX 16 15 0 -3
BITMAP
0000
0000
0000
0000
1E3E
73E7
E1C3
E1FF
E1C0
E1C0
73E3
1F7E
0000
0000
0000
ENDCHAR

STARTCHAR Ydieresis
ENCODING 130
SWIDTH 1140 0
DWIDTH 16 0
BBX 16 15 0 -3
BITMAP
0630
0630
0000
780F
1C1C
0E38
0770
03E0
01C0
01C0
01C0
03E0
0000
0000
0000
ENDCHAR

STARTCHAR Error
ENCODING 159
SWIDTH 1140 0
DWIDTH 16 0
BBX 16 15 0 -3
BITMAP
07E0
1FF8
3C7C
3C3C
3E3C
1F00
0F80
0780
07C0
03C0
03C0
0000
03C0
03C0
03C0
ENDCHAR

STARTCHAR space
ENCODING 160
SWIDTH 1140 0
DWIDTH 16 0
BBX 16 15 0 -3
BITMAP
0000
0000
0000
0000
0000
0000
0000
0000
0000
0000
0000
0000
0000
0000
0000
ENDCHAR

STARTCHAR exclamdown
ENCODING 161
SWIDTH 1140 0
DWIDTH 16 0
BBX 16 15 0 -3
BITMAP
0000
0000
0180
0180
0000
0180
0180
0180
0180
0180
0180
0180
0180
0000
0000
ENDCHAR

STARTCHAR cent
ENCODING 162
SWIDTH 1140 0
DWIDTH 16 0
BBX 16 15 0 -3
BITMAP
0000
0000
00C0
00C0
07F8
0EDC
1CC0
1CC0
1EC0
0FDC
07F8
00C0
00C0
0000
0000
ENDCHAR

STARTCHAR sterling
ENCODING 163
SWIDTH 1140 0
DWIDTH 16 0
BBX 16 15 0 -3
BITMAP
0000
0000
01F0
03D8
0380
0380
0FF0
0380
0380
0780
0FCE
1E7C
0000
0000
0000
ENDCHAR

STARTCHAR currency
ENCODING 164
SWIDTH 1140 0
DWIDTH 16 0
BBX 16 15 0 -3
BITMAP
0000
0000
0000
0000
1818
0FF0
1C38
1C38
1C38
0FF0
1818
0000
0000
0000
0000
ENDCHAR

STARTCHAR yen
ENCODING 165
SWIDTH 1140 0
DWIDTH 16 0
BBX 16 15 0 -3
BITMAP
0000
0000
380E
1C1C
0E38
0770
1FFC
01C0
01C0
1FFC
01C0
03E0
0000
0000
0000
ENDCHAR

STARTCHAR brokenbar
ENCODING 166
SWIDTH 1140 0
DWIDTH 16 0
BBX 16 15 0 -3
BITMAP
0000
0180
0180
0180
0180
0180
0000
0000
0180
0180
0180
0180
0180
0000
0000
ENDCHAR

STARTCHAR section
ENCODING 167
SWIDTH 1140 0
DWIDTH 16 0
BBX 16 15 0 -3
BITMAP
0000
07F8
0F1C
0E00
0E00
07F8
0E1C
0E1C
07F8
001C
001C
0E3C
07F8
0000
0000
ENDCHAR

STARTCHAR dieresis
ENCODING 168
SWIDTH 1140 0
DWIDTH 16 0
BBX 16 15 0 -3
BITMAP
0000
0C60
0C60
0000
0000
0000
0000
0000
0000
0000
0000
0000
0000
0000
0000
ENDCHAR

STARTCHAR copyright
ENCODING 169
SWIDTH 1140 0
DWIDTH 16 0
BBX 16 15 0 -3
BITMAP
0000
0000
07F0
1E3C
380E
31E6
3306
3306
31E6
380E
1E3C
07F0
0000
0000
0000
ENDCHAR

STARTCHAR ordfeminine
ENCODING 170
SWIDTH 1140 0
DWIDTH 16 0
BBX 16 15 0 -3
BITMAP
03E0
0770
0030
07F0
0C30
0E78
07B8
0000
0FF8
0000
0000
0000
0000
0000
0000
ENDCHAR

STARTCHAR guillemotleft
ENCODING 171
SWIDTH 1140 0
DWIDTH 16 0
BBX 16 15 0 -3
BITMAP
0000
0000
0000
0000
01CE
039C
0738
0E70
0738
039C
01CE
0000
0000
0000
0000
ENDCHAR

STARTCHAR logicalnot
ENCODING 172
SWIDTH 1140 0
DWIDTH 16 0
BBX 16 15 0 -3
BITMAP
0000
0000
0000
0000
0000
0000
0000
1FF8
0018
0018
0000
0000
0000
0000
0000
ENDCHAR

STARTCHAR hyphen
ENCODING 173
SWIDTH 1140 0
DWIDTH 16 0
BBX 16 15 0 -3
BITMAP
0000
0000
0000
0000
0000
0000
0000
07E0
0000
0000
0000
0000
0000
0000
0000
ENDCHAR

STARTCHAR registered
ENCODING 174
SWIDTH 1140 0
DWIDTH 16 0
BBX 16 15 0 -3
BITMAP
0000
0000
07F0
1E3C
380E
33C6
3366
33C6
3366
380E
1E3C
07F0
0000
0000
0000
ENDCHAR

STARTCHAR macron
ENCODING 175
SWIDTH 1140 0
DWIDTH 16 0
BBX 16 15 0 -3
BITMAP
0000
0FE0
0000
0000
0000
0000
0000
0000
0000
0000
0000
0000
0000
0000
0000
ENDCHAR

STARTCHAR degree
ENCODING 176
SWIDTH 1140 0
DWIDTH 16 0
BBX 16 15 0 -3
BITMAP
0000
0000
07C0
0C60
0C60
07C0
0000
0000
0000
0000
0000
0000
0000
0000
0000
ENDCHAR

STARTCHAR plusminus
ENCODING 177
SWIDTH 1140 0
DWIDTH 16 0
BBX 16 15 0 -3
BITMAP
0000
0000
0000
0180
0180
0180
1FF8
0180
0180
0180
0000
1FF8
0000
0000
0000
ENDCHAR

STARTCHAR twosuperior
ENCODING 178
SWIDTH 1140 0
DWIDTH 16 0
BBX 16 15 0 -3
BITMAP
0000
03E0
0670
00E0
03C0
0710
07F0
0000
0000
0000
0000
0000
0000
0000
0000
ENDCHAR

STARTCHAR threesuperior
ENCODING 179
SWIDTH 1140 0
DWIDTH 16 0
BBX 16 15 0 -3
BITMAP
0000
03E0
0670
00C0
0070
0670
03E0
0000
0000
0000
0000
0000
0000
0000
0000
ENDCHAR

STARTCHAR acute
ENCODING 180
SWIDTH 1140 0
DWIDTH 16 0
BBX 16 15 0 -3
BITMAP
00C0
0180
0300
0000
0000
0000
0000
0000
0000
0000
0000
0000
0000
0000
0000
ENDCHAR

STARTCHAR mu
ENCODING 181
SWIDTH 1140 0
DWIDTH 16 0
BBX 16 15 0 -3
BITMAP
0000
0000
0000
0000
070E
071C
0E1C
0E38
1C38
1C70
3CF0
377C
6000
6000
0000
ENDCHAR

STARTCHAR paragraph
ENCODING 182
SWIDTH 1140 0
DWIDTH 16 0
BBX 16 15 0 -3
BITMAP
0000
07F8
0FB0
1FB0
1FB0
1FB0
1FB0
0FB0
07B0
01B0
01B0
01B0
01B0
01B0
0000
ENDCHAR

STARTCHAR periodcentered
ENCODING 183
SWIDTH 1140 0
DWIDTH 16 0
BBX 16 15 0 -3
BITMAP
0000
0000
0000
0000
0000
0000
0380
0380
0380
0000
0000
0000
0000
0000
0000
ENDCHAR

STARTCHAR cedilla
ENCODING 184
SWIDTH 1140 0
DWIDTH 16 0
BBX 16 15 0 -3
BITMAP
0000
0000
0000
0000
0000
0000
0000
0000
0000
0000
0000
0000
0180
0300
0000
ENDCHAR

STARTCHAR onesuperior
ENCODING 185
SWIDTH 1140 0
DWIDTH 16 0
BBX 16 15 0 -3
BITMAP
0000
0180
0780
0180
0180
0180
07E0
0000
0000
0000
0000
0000
0000
0000
0000
ENDCHAR

STARTCHAR ordmasculine
ENCODING 186
SWIDTH 1140 0
DWIDTH 16 0
BBX 16 15 0 -3
BITMAP
03C0
0E70
1C38
1C38
1C38
0E70
03C0
0000
1FF8
0000
0000
0000
0000
0000
0000
ENDCHAR

STARTCHAR guillemotright
ENCODING 187
SWIDTH 1140 0
DWIDTH 16 0
BBX 16 15 0 -3
BITMAP
0000
0000
0000
0000
7380
39C0
1CE0
0E70
1CE0
39C0
7380
0000
0000
0000
0000
ENDCHAR

STARTCHAR onequarter
ENCODING 188
SWIDTH 1140 0
DWIDTH 16 0
BBX 16 15 0 -3
BITMAP
0000
0C06
3C0C
0C18
0C30
3F60
00C0
018C
031C
062C
0C4C
187E
000C
0000
0000
ENDCHAR

STARTCHAR onehalf
ENCODING 189
SWIDTH 1140 0
DWIDTH 16 0
BBX 16 15 0 -3
BITMAP
0000
0C06
3C0C
0C18
0C30
3F60
00C0
0180
033E
0647
0C3E
1870
007F
0000
0000
ENDCHAR

STARTCHAR threequarters
ENCODING 190
SWIDTH 1140 0
DWIDTH 16 0
BBX 16 15 0 -3
BITMAP
0000
7C06
CE0C
1818
0E30
CE60
7CCC
019C
032C
064C
0C7E
180C
000C
0000
0000
ENDCHAR

STARTCHAR questiondown
ENCODING 191
SWIDTH 1140 0
DWIDTH 16 0
BBX 16 15 0 -3
BITMAP
0000
0000
00C0
00C0
0000
00C0
00C0
03C0
0F00
1C00
1C18
1E38
0FF0
0000
0000
ENDCHAR

STARTCHAR Agrave
ENCODING 192
SWIDTH 1140 0
DWIDTH 16 0
BBX 16 15 0 -3
BITMAP
0180
00C0
0000
01E0
03F0
0330
0738
0E1C
0FFC
1C0E
1C0E
3E1F
0000
0000
0000
ENDCHAR

STARTCHAR Aacute
ENCODING 193
SWIDTH 1140 0
DWIDTH 16 0
BBX 16 15 0 -3
BITMAP
0030
0060
0000
01E0
03F0
0330
0738
0E1C
0FFC
1C0E
1C0E
3E1F
0000
0000
0000
ENDCHAR

STARTCHAR Acircumflex
ENCODING 194
SWIDTH 1140 0
DWIDTH 16 0
BBX 16 15 0 -3
BITMAP
01E0
0330
0000
01E0
03F0
0330
0738
0E1C
0FFC
1C0E
1C0E
3E1F
0000
0000
0000
ENDCHAR

STARTCHAR Atilde
ENCODING 195
SWIDTH 1140 0
DWIDTH 16 0
BBX 16 15 0 -3
BITMAP
01D8
0370
0000
01E0
03F0
0330
0738
0E1C
0FFC
1C0E
1C0E
3E1F
0000
0000
0000
ENDCHAR

STARTCHAR Adieresis
ENCODING 196
SWIDTH 1140 0
DWIDTH 16 0
BBX 16 15 0 -3
BITMAP
0330
0330
0000
01E0
03F0
0330
0738
0E1C
0FFC
1C0E
1C0E
3E1F
0000
0000
0000
ENDCHAR

STARTCHAR Aring
ENCODING 197
SWIDTH 1140 0
DWIDTH 16 0
BBX 16 15 0 -3
BITMAP
01E0
0330
01E0
00C0
03F0
0330
0738
0E1C
0FFC
1C0E
1C0E
3E1F
0000
0000
0000
ENDCHAR

STARTCHAR AE
ENCODING 198
SWIDTH 1140 0
DWIDTH 16 0
BBX 16 15 0 -3
BITMAP
0000
0000
007F
00F1
01F0
0370
067E
0C70
1FF0
3870
7071
F8FF
0000
0000
0000
ENDCHAR

STARTCHAR Ccedilla
ENCODING 199
SWIDTH 1140 0
DWIDTH 16 0
BBX 16 15 0 -3
BITMAP
0000
0000
07FC
1E0E
1C06
3800
3800
3800
3802
1C06
1F0E
07FC
0060
00C0
0380
ENDCHAR

STARTCHAR Egrave
ENCODING 200
SWIDTH 1140 0
DWIDTH 16 0
BBX 16 15 0 -3
BITMAP
0180
00C0
0000
3FFC
0E0C
0E04
0E00
0FF0
0E00
0E04
0E0C
3FFC
0000
0000
0000
ENDCHAR

STARTCHAR Eacute
ENCODING 201
SWIDTH 1140 0
DWIDTH 16 0
BBX 16 15 0 -3
BITMAP
0060
00C0
0000
3FFC
0E0C
0E04
0E00
0FF0
0E00
0E04
0E0C
3FFC
0000
0000
0000
ENDCHAR

STARTCHAR Ecircumflex
ENCODING 202
SWIDTH 1140 0
DWIDTH 16 0
BBX 16 15 0 -3
BITMAP
01E0
0330
0000
3FFC
0E0C
0E04
0E00
0FF0
0E00
0E04
0E0C
3FFC
0000
0000
0000
ENDCHAR

STARTCHAR Edieresis
ENCODING 203
SWIDTH 1140 0
DWIDTH 16 0
BBX 16 15 0 -3
BITMAP
0330
0330
0000
3FFC
0E0C
0E04
0E00
0FF0
0E00
0E04
0E0C
3FFC
0000
0000
0000
ENDCHAR

STARTCHAR Igrave
ENCODING 204
SWIDTH 1140 0
DWIDTH 16 0
BBX 16 15 0 -3
BITMAP
0180
00C0
0000
0FF8
01C0
01C0
01C0
01C0
01C0
01C0
01C0
0FF8
0000
0000
0000
ENDCHAR

STARTCHAR Iacute
ENCODING 205
SWIDTH 1140 0
DWIDTH 16 0
BBX 16 15 0 -3
BITMAP
0060
00C0
0000
0FF8
01C0
01C0
01C0
01C0
01C0
01C0
01C0
0FF8
0000
0000
0000
ENDCHAR

STARTCHAR Icircumflex
ENCODING 206
SWIDTH 1140 0
DWIDTH 16 0
BBX 16 15 0 -3
BITMAP
01C0
0360
0000
0FF8
01C0
01C0
01C0
01C0
01C0
01C0
01C0
0FF8
0000
0000
0000
ENDCHAR

STARTCHAR Idieresis
ENCODING 207
SWIDTH 1140 0
DWIDTH 16 0
BBX 16 15 0 -3
BITMAP
0630
0630
0000
0FF8
01C0
01C0
01C0
01C0
01C0
01C0
01C0
0FF8
0000
0000
0000
ENDCHAR

STARTCHAR Eth
ENCODING 208
SWIDTH 1140 0
DWIDTH 16 0
BBX 16 15 0 -3
BITMAP
0000
0000
7FF0
1C3C
1C1C
1C0E
7F0E
1C0E
1C0E
1C1C
1C3C
7FF0
0000
0000
0000
ENDCHAR

STARTCHAR Ntilde
ENCODING 209
SWIDTH 1140 0
DWIDTH 16 0
BBX 16 15 0 -3
BITMAP
03B0
06E0
0000
3E0F
1F0E
1D8E
1DCE
1CEE
1C6E
1C3E
1C1E
3C0E
0000
0000
0000
ENDCHAR

STARTCHAR Ograve
ENCODING 210
SWIDTH 1140 0
DWIDTH 16 0
BBX 16 15 0 -3
BITMAP
0180
00C0
0000
07F0
1E3C
3C1E
380E
380E
380E
1C1C
1E3C
07F0
0000
0000
0000
ENDCHAR

STARTCHAR Oacute
ENCODING 211
SWIDTH 1140 0
DWIDTH 16 0
BBX 16 15 0 -3
BITMAP
0060
00C0
0000
07F0
1E3C
3C1E
380E
380E
380E
1C1C
1E3C
07F0
0000
0000
0000
ENDCHAR

STARTCHAR Ocircumflex
ENCODING 212
SWIDTH 1140 0
DWIDTH 16 0
BBX 16 15 0 -3
BITMAP
01E0
0330
0000
07F0
1E3C
3C1E
380E
380E
380E
1C1C
1E3C
07F0
0000
0000
0000
ENDCHAR

STARTCHAR Otilde
ENCODING 213
SWIDTH 1140 0
DWIDTH 16 0
BBX 16 15 0 -3
BITMAP
03B0
06E0
0000
07F0
1E3C
3C1E
380E
380E
380E
1C1C
1E3C
07F0
0000
0000
0000
ENDCHAR

STARTCHAR Odieresis
ENCODING 214
SWIDTH 1140 0
DWIDTH 16 0
BBX 16 15 0 -3
BITMAP
0330
0330
0000
07F0
1E3C
3C1E
380E
380E
380E
1C1C
1E3C
07F0
0000
0000
0000
ENDCHAR

STARTCHAR multiply
ENCODING 215
SWIDTH 1140 0
DWIDTH 16 0
BBX 16 15 0 -3
BITMAP
0000
0000
0000
0E38
0770
03E0
01C0
01C0
03E0
0770
0E38
0000
0000
0000
0000
ENDCHAR

STARTCHAR Oslash
ENCODING 216
SWIDTH 1140 0
DWIDTH 16 0
BBX 16 15 0 -3
BITMAP
0000
000C
07F8
1C3C
187C
38CE
398E
3B0E
3E0E
1C1C
1E3C
37F0
0000
0000
0000
ENDCHAR

STARTCHAR Ugrave
ENCODING 217
SWIDTH 1140 0
DWIDTH 16 0
BBX 16 15 0 -3
BITMAP
0180
00C0
0000
3E3E
1C1C
1C1C
1C1C
1C1C
1C1C
1C1C
0E38
07F0
0000
0000
0000
ENDCHAR

STARTCHAR Uacute
ENCODING 218
SWIDTH 1140 0
DWIDTH 16 0
BBX 16 15 0 -3
BITMAP
0060
00C0
0000
3E3E
1C1C
1C1C
1C1C
1C1C
1C1C
1C1C
0E38
07F0
0000
0000
0000
ENDCHAR

STARTCHAR Ucircumflex
ENCODING 219
SWIDTH 1140 0
DWIDTH 16 0
BBX 16 15 0 -3
BITMAP
01E0
0330
0000
3E3E
1C1C
1C1C
1C1C
1C1C
1C1C
1C1C
0E38
07F0
0000
0000
0000
ENDCHAR

STARTCHAR Udieresis
ENCODING 220
SWIDTH 1140 0
DWIDTH 16 0
BBX 16 15 0 -3
BITMAP
0630
0630
0000
3E3E
1C1C
1C1C
1C1C
1C1C
1C1C
1C1C
0E38
07F0
0000
0000
0000
ENDCHAR

STARTCHAR Yacute
ENCODING 221
SWIDTH 1140 0
DWIDTH 16 0
BBX 16 15 0 -3
BITMAP
0060
00C0
780F
1C1C
0E38
0770
03E0
01C0
01C0
01C0
01C0
03E0
0000
0000
0000
ENDCHAR

STARTCHAR Thorn
ENCODING 222
SWIDTH 1140 0
DWIDTH 16 0
BBX 16 15 0 -3
BITMAP
0000
0000
3F00
0E00
0FFC
0E1E
0E0E
0E0E
0E1E
0FFC
0E00
3F80
0000
0000
0000
ENDCHAR

STARTCHAR germandbls
ENCODING 223
SWIDTH 1140 0
DWIDTH 16 0
BBX 16 15 0 -3
BITMAP
0000
0000
03FC
0E1E
1C0E
1C0E
7DF8
1C0E
1C0E
1C0E
1C1E
7DF8
0000
0000
0000
ENDCHAR

STARTCHAR agrave
ENCODING 224
SWIDTH 1140 0
DWIDTH 16 0
BBX 16 15 0 -3
BITMAP
0300
0180
00C0
0000
0FFC
1E1E
000E
000E
1FFE
3C0E
3C1E
1FE7
0000
0000
0000
ENDCHAR

STARTCHAR aacute
ENCODING 225
SWIDTH 1140 0
DWIDTH 16 0
BBX 16 15 0 -3
BITMAP
0030
0060
00C0
0000
0FFC
1E1E
000E
000E
1FFE
3C0E
3C1E
1FE7
0000
0000
0000
ENDCHAR

STARTCHAR acircumflex
ENCODING 226
SWIDTH 1140 0
DWIDTH 16 0
BBX 16 15 0 -3
BITMAP
00C0
01E0
0330
0000
0FFC
1E1E
000E
000E
1FFE
3C0E
3C1E
1FE7
0000
0000
0000
ENDCHAR

STARTCHAR atilde
ENCODING 227
SWIDTH 1140 0
DWIDTH 16 0
BBX 16 15 0 -3
BITMAP
0190
03F0
0260
0000
0FFC
1E1E
000E
000E
1FFE
3C0E
3C1E
1FE7
0000
0000
0000
ENDCHAR

STARTCHAR adieresis
ENCODING 228
SWIDTH 1140 0
DWIDTH 16 0
BBX 16 15 0 -3
BITMAP
0000
0318
0318
0000
0FFC
1E1E
000E
000E
1FFE
3C0E
3C1E
1FE7
0000
0000
0000
ENDCHAR

STARTCHAR aring
ENCODING 229
SWIDTH 1140 0
DWIDTH 16 0
BBX 16 15 0 -3
BITMAP
01E0
0330
01E0
0000
0FFC
1E1E
000E
000E
1FFE
3C0E
3C1E
1FE7
0000
0000
0000
ENDCHAR

STARTCHAR ae
ENCODING 230
SWIDTH 1140 0
DWIDTH 16 0
BBX 16 15 0 -3
BITMAP
0000
0000
0000
0000
3F7E
73E7
01C7
01FE
7FC0
F1C1
F3E3
7EFE
0000
0000
0000
ENDCHAR

STARTCHAR ccedilla
ENCODING 231
SWIDTH 1140 0
DWIDTH 16 0
BBX 16 15 0 -3
BITMAP
0000
0000
0000
0000
07FC
1C0E
3806
3800
3800
3C06
1E0E
07FC
0060
00C0
0000
ENDCHAR

STARTCHAR egrave
ENCODING 232
SWIDTH 1140 0
DWIDTH 16 0
BBX 16 15 0 -3
BITMAP
0300
0180
00C0
0000
07FC
1C0E
380E
3FFC
3800
3806
1C0E
0FFC
0000
0000
0000
ENDCHAR

STARTCHAR eacute
ENCODING 233
SWIDTH 1140 0
DWIDTH 16 0
BBX 16 15 0 -3
BITMAP
0030
0060
00C0
0000
07FC
1C0E
380E
3FFC
3800
3806
1C0E
0FFC
0000
0000
0000
ENDCHAR

STARTCHAR ecircumflex
ENCODING 234
SWIDTH 1140 0
DWIDTH 16 0
BBX 16 15 0 -3
BITMAP
00E0
01B0
0318
0000
07FC
1C0E
380E
3FFC
3800
3806
1C0E
0FFC
0000
0000
0000
ENDCHAR

STARTCHAR edieresis
ENCODING 235
SWIDTH 1140 0
DWIDTH 16 0
BBX 16 15 0 -3
BITMAP
0000
0630
0630
0000
07FC
1C0E
380E
3FFC
3800
3806
1C0E
0FFC
0000
0000
0000
ENDCHAR

STARTCHAR igrave
ENCODING 236
SWIDTH 1140 0
DWIDTH 16 0
BBX 16 15 0 -3
BITMAP
0600
0300
0180
0000
1FC0
01C0
01C0
01C0
01C0
01C0
01C0
3FFE
0000
0000
0000
ENDCHAR

STARTCHAR iacute
ENCODING 237
SWIDTH 1140 0
DWIDTH 16 0
BBX 16 15 0 -3
BITMAP
0060
00C0
0180
0000
1FC0
01C0
01C0
01C0
01C0
01C0
01C0
3FFE
0000
0000
0000
ENDCHAR

STARTCHAR icircumflex
ENCODING 238
SWIDTH 1140 0
DWIDTH 16 0
BBX 16 15 0 -3
BITMAP
01C0
0360
0630
0000
1FC0
01C0
01C0
01C0
01C0
01C0
01C0
3FFE
0000
0000
0000
ENDCHAR

STARTCHAR idieresis
ENCODING 239
SWIDTH 1140 0
DWIDTH 16 0
BBX 16 15 0 -3
BITMAP
0000
0630
0630
0000
1FC0
01C0
01C0
01C0
01C0
01C0
01C0
3FFE
0000
0000
0000
ENDCHAR

STARTCHAR eth
ENCODING 240
SWIDTH 1140 0
DWIDTH 16 0
BBX 16 15 0 -3
BITMAP
0E70
03C0
0EE0
0030
07F8
1C1C
380E
380E
380E
380E
1C1C
07F0
0000
0000
0000
ENDCHAR

STARTCHAR ntilde
ENCODING 241
SWIDTH 1140 0
DWIDTH 16 0
BBX 16 15 0 -3
BITMAP
0710
0FF0
08E0
0000
7DF8
1E3C
1C1C
1C1C
1C1C
1C1C
1C1C
7C1F
0000
0000
0000
ENDCHAR

STARTCHAR ograve
ENCODING 242
SWIDTH 1140 0
DWIDTH 16 0
BBX 16 15 0 -3
BITMAP
0600
0300
0180
0000
07F0
1C1C
380E
380E
380E
380E
1C1C
07F0
0000
0000
0000
ENDCHAR

STARTCHAR oacute
ENCODING 243
SWIDTH 1140 0
DWIDTH 16 0
BBX 16 15 0 -3
BITMAP
0030
0060
00C0
0000
07F0
1C1C
380E
380E
380E
380E
1C1C
07F0
0000
0000
0000
ENDCHAR

STARTCHAR ocircumflex
ENCODING 244
SWIDTH 1140 0
DWIDTH 16 0
BBX 16 15 0 -3
BITMAP
01C0
0360
0630
0000
07F0
1C1C
380E
380E
380E
380E
1C1C
07F0
0000
0000
0000
ENDCHAR

STARTCHAR otilde
ENCODING 245
SWIDTH 1140 0
DWIDTH 16 0
BBX 16 15 0 -3
BITMAP
0388
07F8
0470
0000
03F8
0E0E
1C07
1C07
1C07
1C07
0E0E
03F8
0000
0000
0000
ENDCHAR

STARTCHAR odieresis
ENCODING 246
SWIDTH 1140 0
DWIDTH 16 0
BBX 16 15 0 -3
BITMAP
0000
0630
0630
0000
07F0
1C1C
380E
380E
380E
380E
1C1C
07F0
0000
0000
0000
ENDCHAR

STARTCHAR divide
ENCODING 247
SWIDTH 1140 0
DWIDTH 16 0
BBX 16 15 0 -3
BITMAP
0000
0000
0000
0180
0180
0000
0000
1FF8
0000
0000
0180
0180
0000
0000
0000
ENDCHAR

STARTCHAR oslash
ENCODING 248
SWIDTH 1140 0
DWIDTH 16 0
BBX 16 15 0 -3
BITMAP
0000
0000
0000
000C
07F8
1C3C
386E
38CE
398E
3B0E
1E1C
1FF0
3000
0000
0000
ENDCHAR

STARTCHAR ugrave
ENCODING 249
SWIDTH 1140 0
DWIDTH 16 0
BBX 16 15 0 -3
BITMAP
0600
0300
0180
0000
7C7C
1C1C
1C1C
1C1C
1C1C
1C1C
1E3C
0FDF
0000
0000
0000
ENDCHAR

STARTCHAR uacute
ENCODING 250
SWIDTH 1140 0
DWIDTH 16 0
BBX 16 15 0 -3
BITMAP
0060
00C0
0180
0000
7C7C
1C1C
1C1C
1C1C
1C1C
1C1C
1E3C
0FDF
0000
0000
0000
ENDCHAR

STARTCHAR ucircumflex
ENCODING 251
SWIDTH 1140 0
DWIDTH 16 0
BBX 16 15 0 -3
BITMAP
0180
03C0
0660
0000
7C7C
1C1C
1C1C
1C1C
1C1C
1C1C
1E3C
0FDF
0000
0000
0000
ENDCHAR

STARTCHAR udieresis
ENCODING 252
SWIDTH 1140 0
DWIDTH 16 0
BBX 16 15 0 -3
BITMAP
0000
0630
0630
0000
7C7C
1C1C
1C1C
1C1C
1C1C
1C1C
1E3C
0FDF
0000
0000
0000
ENDCHAR

STARTCHAR yacute
ENCODING 253
SWIDTH 1140 0
DWIDTH 16 0
BBX 16 15 0 -3
BITMAP
0060
00C0
0180
0000
F81F
380E
1C1C
0E38
0770
03E0
01C0
0380
0700
3C00
0000
ENDCHAR

STARTCHAR thorn
ENCODING 254
SWIDTH 1140 0
DWIDTH 16 0
BBX 16 15 0 -3
BITMAP
0000
0000
7C00
1C00
1DF8
1E1C
1C0E
1C0E
1C0E
1C0E
1E1C
1DF8
1C00
7F00
0000
ENDCHAR

STARTCHAR ydieresis
ENCODING 255
SWIDTH 1140 0
DWIDTH 16 0
BBX 16 15 0 -3
BITMAP
0000
0660
0660
0000
F81F
380E
1C1C
0E38
0770
03E0
01C0
0380
0700
3C00
0000
ENDCHAR
ENDFONT
